<svg xmlns="http://www.w3.org/2000/svg" version="1.1" xmlns:xlink="http://www.w3.org/1999/xlink" xmlns:svgjs="http://svgjs.com/svgjs" width="1440" height="560" preserveAspectRatio="none" viewBox="0 0 1440 560"><g mask="url(&quot;#SvgjsMask1063&quot;)" fill="none"><rect width="1440" height="560" x="0" y="0" fill="rgba(81, 46, 95, 1)"></rect><path d="M0,618.06C125.821,612.689,263.726,643.159,367.199,571.373C469.986,500.063,515.855,368.606,537.23,245.345C555.809,138.209,495.849,38.538,478.206,-68.756C461.03,-173.206,479.876,-281.027,434.917,-376.858C380.403,-493.055,317.472,-626.331,196.499,-669.215C75.173,-712.225,-54.067,-639.379,-174.041,-592.731C-285.074,-549.56,-386.641,-492.052,-472.242,-409.2C-564.272,-320.126,-672.426,-225.933,-684.723,-98.448C-696.942,28.226,-584.851,127.244,-535.295,244.461C-483.864,366.115,-496.225,528.017,-387.916,603.609C-279.615,679.196,-131.95,623.693,0,618.06" fill="#3e2348"></path><path d="M1440 1146.217C1551.022 1165.897 1663.442 1116.222 1758.9940000000001 1056.364 1855.263 996.057 1931.847 909.475 1981.2269999999999 807.17 2031.3110000000001 703.408 2063.603 586.521 2040.233 473.699 2017.444 363.682 1938.909 275.23 1855.459 200.003 1779.099 131.16699999999997 1687.269 79.58600000000001 1585.662 63.92099999999999 1491.203 49.358000000000004 1399.68 83.94900000000001 1309.584 115.84300000000002 1224.013 146.13600000000002 1149.673 191.668 1075.796 244.416 980.044 312.783 844.465 356.398 813.642 469.943 783.014 582.771 855.229 701.822 926.465 794.524 989.749 876.8779999999999 1100.561 896.152 1186.253 954.838 1275.469 1015.937 1333.528 1127.3429999999998 1440 1146.217" fill="#643976"></path></g><defs><mask id="SvgjsMask1063"><rect width="1440" height="560" fill="#ffffff"></rect></mask></defs></svg>