<svg xmlns="http://www.w3.org/2000/svg" version="1.1" xmlns:xlink="http://www.w3.org/1999/xlink" xmlns:svgjs="http://svgjs.com/svgjs" width="1440" height="800" preserveAspectRatio="none" viewBox="0 0 1440 800"><g mask="url(&quot;#SvgjsMask1117&quot;)" fill="none"><rect width="1440" height="800" x="0" y="0" fill="rgba(88, 82, 61, 1)"></rect><path d="M1560 800L0 800 L0 479.54Q5.58 365.13, 120 370.71Q168.16 298.87, 240 347.02Q294.95 281.97, 360 336.92Q429.82 334.74, 432 404.56Q469.79 322.35, 552 360.14Q599.14 335.28, 624 382.43Q736.57 375, 744 487.58Q762.3 385.88, 864 404.18Q882.21 302.38, 984 320.59Q1052.52 269.11, 1104 337.63Q1173.05 286.68, 1224 355.73Q1272.53 332.26, 1296 380.8Q1301.65 314.46, 1368 320.11Q1409.83 289.94, 1440 331.77Q1569.2 340.98, 1560 470.18z" fill="rgba(0, 0, 0, 1)"></path><path d="M1536 800L0 800 L0 454.19Q60.53 442.72, 72 503.24Q166.27 477.51, 192 571.79Q212.28 520.07, 264 540.35Q284.51 488.87, 336 509.38Q389.07 442.45, 456 495.52Q565.29 484.81, 576 594.1Q627.13 525.24, 696 576.37Q748.43 508.8, 816 561.22Q815.69 440.91, 936 440.6Q1032.29 416.89, 1056 513.18Q1128.14 465.33, 1176 537.47Q1189.32 430.79, 1296 444.1Q1366.64 394.75, 1416 465.39Q1524.84 454.22, 1536 563.06z" fill="rgba(71, 71, 71, 1)"></path><path d="M1512 800L0 800 L0 708.67Q24.01 612.68, 120 636.69Q135.32 580.01, 192 595.32Q267.31 550.63, 312 625.94Q361.38 603.32, 384 652.69Q393.87 590.56, 456 600.43Q480.26 552.69, 528 576.95Q556.97 533.92, 600 562.89Q704.39 547.28, 720 651.67Q722.08 581.75, 792 583.83Q841.6 513.43, 912 563.04Q995.18 526.22, 1032 609.4Q1146.65 604.05, 1152 718.7Q1162.2 656.9, 1224 667.1Q1246.64 617.75, 1296 640.39Q1350.8 623.19, 1368 677.99Q1427.99 665.99, 1440 725.98Q1457.57 671.55, 1512 689.11z" fill="rgba(136, 136, 136, 1)"></path><path d="M1536 800L0 800 L0 706.21Q63.1 649.31, 120 712.4Q232.86 705.25, 240 818.11Q268.58 726.69, 360 755.27Q366.59 689.86, 432 696.45Q552.88 697.34, 552 818.22Q537.53 731.75, 624 717.28Q673.53 646.81, 744 696.34Q806.75 687.09, 816 749.84Q881.93 743.77, 888 809.69Q932.69 782.38, 960 827.08Q968.63 763.71, 1032 772.33Q1054.36 722.68, 1104 745.04Q1195.63 716.67, 1224 808.3Q1268.24 780.53, 1296 824.77Q1330.13 738.9, 1416 773.03Q1489.41 726.44, 1536 799.86z" fill="white"></path></g><defs><mask id="SvgjsMask1117"><rect width="1440" height="800" fill="#ffffff"></rect></mask></defs></svg>