<svg xmlns="http://www.w3.org/2000/svg" version="1.1" xmlns:xlink="http://www.w3.org/1999/xlink" xmlns:svgjs="http://svgjs.com/svgjs" width="1440" height="560" preserveAspectRatio="none" viewBox="0 0 1440 560"><g mask="url(&quot;#SvgjsMask1106&quot;)" fill="none"><rect width="1440" height="560" x="0" y="0" fill="rgba(88, 82, 61, 1)"></rect><path d="M1512 560L0 560 L0 328.84Q31.98 288.81, 72 320.79Q69.69 246.48, 144 244.16Q194.76 174.92, 264 225.68Q326.63 216.31, 336 278.93Q383.06 205.99, 456 253.05Q537.04 214.09, 576 295.12Q646.43 245.55, 696 315.98Q733.37 233.35, 816 270.71Q854.23 188.94, 936 227.16Q982.42 201.58, 1008 248.01Q1108.34 228.35, 1128 328.69Q1162.71 243.4, 1248 278.11Q1294.77 204.88, 1368 251.66Q1422.67 234.33, 1440 289.01Q1498.62 275.63, 1512 334.24z" fill="rgba(0, 0, 0, 1)"></path><path d="M1512 560L0 560 L0 351.69Q49.68 281.37, 120 331.04Q178.8 317.84, 192 376.64Q262.13 326.77, 312 396.9Q321.71 334.61, 384 344.31Q454.34 294.65, 504 365Q552.84 341.84, 576 390.67Q588.78 331.45, 648 344.23Q671.38 295.61, 720 318.98Q808.45 287.44, 840 375.89Q859.09 322.98, 912 342.06Q978.57 288.63, 1032 355.2Q1096.83 348.02, 1104 412.85Q1117.26 354.11, 1176 367.36Q1206.68 326.04, 1248 356.72Q1307.1 343.82, 1320 402.91Q1346.64 357.56, 1392 384.2Q1422.9 295.1, 1512 326z" fill="rgba(71, 71, 71, 1)"></path><path d="M1536 560L0 560 L0 408.94Q81.06 370, 120 451.05Q190.47 401.52, 240 471.99Q254.32 414.31, 312 428.63Q354.97 351.6, 432 394.57Q522.39 364.96, 552 455.35Q594.22 425.57, 624 467.79Q661.13 384.93, 744 422.06Q786.04 392.1, 816 434.14Q837.16 383.3, 888 404.46Q969.91 366.37, 1008 448.28Q1065.88 434.15, 1080 492.03Q1085.36 425.38, 1152 430.74Q1173.55 380.29, 1224 401.84Q1293.16 351, 1344 420.17Q1420.09 424.25, 1416 500.34Q1467.01 431.35, 1536 482.36z" fill="rgba(136, 136, 136, 1)"></path><path d="M1536 560L0 560 L0 573.1Q43.05 544.15, 72 587.21Q98.13 493.34, 192 519.46Q231 438.46, 312 477.45Q380.93 426.38, 432 495.3Q486.44 477.75, 504 532.19Q557.6 513.79, 576 567.39Q597.56 468.95, 696 490.52Q763.08 437.6, 816 504.67Q868.12 484.78, 888 536.9Q937.79 466.69, 1008 516.48Q1035.38 471.86, 1080 499.24Q1108.8 456.03, 1152 484.83Q1208.95 469.78, 1224 526.74Q1271.68 502.42, 1296 550.11Q1335.51 469.62, 1416 509.12Q1488.13 461.25, 1536 533.37z" fill="white"></path></g><defs><mask id="SvgjsMask1106"><rect width="1440" height="560" fill="#ffffff"></rect></mask></defs></svg>